<mxfile host="app.diagrams.net" modified="2024-01-11T04:06:37.745Z" agent="Mozilla/5.0 (Windows NT 10.0; Win64; x64) AppleWebKit/537.36 (KHTML, like Gecko) Chrome/120.0.0.0 Safari/537.36 Edg/120.0.0.0" etag="pdRU-UrF3GSWES2qjowH" version="22.1.18" type="github">
  <diagram name="Page-1" id="2YBvvXClWsGukQMizWep">
    <mxGraphModel dx="1460" dy="1103" grid="1" gridSize="10" guides="1" tooltips="1" connect="1" arrows="1" fold="1" page="1" pageScale="1" pageWidth="850" pageHeight="1100" math="0" shadow="0">
      <root>
        <mxCell id="0" />
        <mxCell id="1" parent="0" />
        <mxCell id="VI5VEpIVLjL-skiSAM5E-142" value="" style="group" vertex="1" connectable="0" parent="1">
          <mxGeometry y="110" width="1203" height="350" as="geometry" />
        </mxCell>
        <mxCell id="VI5VEpIVLjL-skiSAM5E-93" value="" style="group" vertex="1" connectable="0" parent="VI5VEpIVLjL-skiSAM5E-142">
          <mxGeometry y="51" width="110" height="240" as="geometry" />
        </mxCell>
        <mxCell id="VI5VEpIVLjL-skiSAM5E-4" value="" style="verticalLabelPosition=bottom;verticalAlign=top;html=1;shape=mxgraph.basic.rect;fillColor2=none;strokeWidth=1;size=20;indent=5;fillColor=#f5f5f5;strokeColor=none;fontColor=#333333;" vertex="1" parent="VI5VEpIVLjL-skiSAM5E-93">
          <mxGeometry width="110" height="240" as="geometry" />
        </mxCell>
        <mxCell id="VI5VEpIVLjL-skiSAM5E-5" value="CRM ONE" style="text;html=1;align=center;verticalAlign=middle;resizable=0;points=[];autosize=1;strokeColor=none;fillColor=none;fontFamily=Verdana;" vertex="1" parent="VI5VEpIVLjL-skiSAM5E-93">
          <mxGeometry x="15" y="72" width="80" height="30" as="geometry" />
        </mxCell>
        <mxCell id="VI5VEpIVLjL-skiSAM5E-7" value="" style="sketch=0;pointerEvents=1;shadow=0;dashed=0;html=1;strokeColor=none;labelPosition=center;verticalLabelPosition=bottom;verticalAlign=top;align=center;fillColor=#515151;shape=mxgraph.mscae.system_center.admin_console" vertex="1" parent="VI5VEpIVLjL-skiSAM5E-93">
          <mxGeometry x="30" y="102" width="50" height="36" as="geometry" />
        </mxCell>
        <mxCell id="VI5VEpIVLjL-skiSAM5E-94" style="edgeStyle=orthogonalEdgeStyle;rounded=0;orthogonalLoop=1;jettySize=auto;html=1;entryX=0;entryY=0.5;entryDx=0;entryDy=0;" edge="1" parent="VI5VEpIVLjL-skiSAM5E-142" source="VI5VEpIVLjL-skiSAM5E-4" target="VI5VEpIVLjL-skiSAM5E-59">
          <mxGeometry relative="1" as="geometry" />
        </mxCell>
        <mxCell id="VI5VEpIVLjL-skiSAM5E-19" value="" style="verticalLabelPosition=bottom;verticalAlign=top;html=1;shape=mxgraph.basic.rect;fillColor2=none;strokeWidth=1;size=20;indent=5;fillColor=#f5f5f5;strokeColor=none;fontColor=#333333;" vertex="1" parent="VI5VEpIVLjL-skiSAM5E-142">
          <mxGeometry x="153" width="1050" height="350" as="geometry" />
        </mxCell>
        <mxCell id="VI5VEpIVLjL-skiSAM5E-88" value="" style="group" vertex="1" connectable="0" parent="VI5VEpIVLjL-skiSAM5E-142">
          <mxGeometry x="194" y="110.5" width="211" height="120" as="geometry" />
        </mxCell>
        <mxCell id="VI5VEpIVLjL-skiSAM5E-59" value="" style="whiteSpace=wrap;html=1;movable=1;resizable=1;rotatable=1;deletable=1;editable=1;locked=0;connectable=1;fillColor=#B5DAFF;strokeColor=none;" vertex="1" parent="VI5VEpIVLjL-skiSAM5E-88">
          <mxGeometry width="210" height="120" as="geometry" />
        </mxCell>
        <mxCell id="VI5VEpIVLjL-skiSAM5E-60" value="" style="verticalLabelPosition=bottom;verticalAlign=top;html=1;shape=mxgraph.basic.rect;fillColor2=none;strokeWidth=1;size=20;indent=5;strokeColor=#6c8ebf;shadow=1;fillColor=#dae8fc;movable=1;resizable=1;rotatable=1;deletable=1;editable=1;locked=0;connectable=1;" vertex="1" parent="VI5VEpIVLjL-skiSAM5E-88">
          <mxGeometry x="10" y="31.5" width="190" height="73" as="geometry" />
        </mxCell>
        <mxCell id="VI5VEpIVLjL-skiSAM5E-62" value="Docker Instance" style="text;html=1;align=left;verticalAlign=middle;resizable=1;points=[];autosize=1;strokeColor=none;fillColor=none;fontFamily=Verdana;movable=1;rotatable=1;deletable=1;editable=1;locked=0;connectable=1;" vertex="1" parent="VI5VEpIVLjL-skiSAM5E-88">
          <mxGeometry x="71" y="31.5" width="120" height="30" as="geometry" />
        </mxCell>
        <mxCell id="VI5VEpIVLjL-skiSAM5E-63" value="Single Instance" style="text;html=1;align=left;verticalAlign=middle;resizable=1;points=[];autosize=1;strokeColor=none;fillColor=none;fontFamily=Verdana;fontSize=10;fontColor=#808080;movable=1;rotatable=1;deletable=1;editable=1;locked=0;connectable=1;" vertex="1" parent="VI5VEpIVLjL-skiSAM5E-88">
          <mxGeometry x="70" y="74.5" width="100" height="30" as="geometry" />
        </mxCell>
        <mxCell id="VI5VEpIVLjL-skiSAM5E-64" value="&lt;font&gt;Computer Instance&lt;/font&gt;" style="text;html=1;align=left;verticalAlign=middle;resizable=1;points=[];autosize=1;strokeColor=none;fillColor=none;fontFamily=Verdana;fontColor=#999999;movable=1;rotatable=1;deletable=1;editable=1;locked=0;connectable=1;" vertex="1" parent="VI5VEpIVLjL-skiSAM5E-88">
          <mxGeometry x="71" y="51.5" width="140" height="30" as="geometry" />
        </mxCell>
        <mxCell id="VI5VEpIVLjL-skiSAM5E-65" value="" style="endArrow=none;html=1;rounded=0;movable=1;resizable=1;rotatable=1;deletable=1;editable=1;locked=0;connectable=1;" edge="1" parent="VI5VEpIVLjL-skiSAM5E-88">
          <mxGeometry width="50" height="50" relative="1" as="geometry">
            <mxPoint x="71" y="81.5" as="sourcePoint" />
            <mxPoint x="180" y="81.5" as="targetPoint" />
          </mxGeometry>
        </mxCell>
        <mxCell id="VI5VEpIVLjL-skiSAM5E-66" value="Load Balancing" style="text;html=1;align=left;verticalAlign=middle;resizable=1;points=[];autosize=1;strokeColor=none;fillColor=none;fontFamily=Verdana;movable=1;rotatable=1;deletable=1;editable=1;locked=0;connectable=1;" vertex="1" parent="VI5VEpIVLjL-skiSAM5E-88">
          <mxGeometry x="10" width="110" height="30" as="geometry" />
        </mxCell>
        <mxCell id="VI5VEpIVLjL-skiSAM5E-87" value="" style="aspect=fixed;sketch=0;html=1;dashed=0;whitespace=wrap;fillColor=#2875E2;strokeColor=#ffffff;points=[[0.005,0.63,0],[0.1,0.2,0],[0.9,0.2,0],[0.5,0,0],[0.995,0.63,0],[0.72,0.99,0],[0.5,1,0],[0.28,0.99,0]];shape=mxgraph.kubernetes.icon2;prIcon=ep" vertex="1" parent="VI5VEpIVLjL-skiSAM5E-88">
          <mxGeometry x="20" y="44" width="50" height="48" as="geometry" />
        </mxCell>
        <mxCell id="VI5VEpIVLjL-skiSAM5E-89" value="" style="group" vertex="1" connectable="0" parent="VI5VEpIVLjL-skiSAM5E-142">
          <mxGeometry x="446" y="110.5" width="211" height="120" as="geometry" />
        </mxCell>
        <mxCell id="VI5VEpIVLjL-skiSAM5E-43" value="" style="whiteSpace=wrap;html=1;movable=1;resizable=1;rotatable=1;deletable=1;editable=1;locked=0;connectable=1;strokeColor=#d6b656;fillColor=#fff2cc;" vertex="1" parent="VI5VEpIVLjL-skiSAM5E-89">
          <mxGeometry width="210" height="120" as="geometry" />
        </mxCell>
        <mxCell id="VI5VEpIVLjL-skiSAM5E-39" value="" style="verticalLabelPosition=bottom;verticalAlign=top;html=1;shape=mxgraph.basic.rect;fillColor2=none;strokeWidth=1;size=20;indent=5;strokeColor=#d6b656;shadow=1;fillColor=#fff2cc;movable=1;resizable=1;rotatable=1;deletable=1;editable=1;locked=0;connectable=1;" vertex="1" parent="VI5VEpIVLjL-skiSAM5E-89">
          <mxGeometry x="10" y="31.5" width="190" height="73" as="geometry" />
        </mxCell>
        <mxCell id="VI5VEpIVLjL-skiSAM5E-40" value="" style="aspect=fixed;sketch=0;html=1;dashed=0;whitespace=wrap;points=[[0.005,0.63,0],[0.1,0.2,0],[0.9,0.2,0],[0.5,0,0],[0.995,0.63,0],[0.72,0.99,0],[0.5,1,0],[0.28,0.99,0]];shape=mxgraph.kubernetes.icon2;prIcon=ep;movable=1;resizable=1;rotatable=1;deletable=1;editable=1;locked=0;connectable=1;strokeColor=#d6b656;fillColor=#fff2cc;" vertex="1" parent="VI5VEpIVLjL-skiSAM5E-89">
          <mxGeometry x="20" y="44" width="50" height="48" as="geometry" />
        </mxCell>
        <mxCell id="VI5VEpIVLjL-skiSAM5E-29" value="Docker Instance" style="text;html=1;align=left;verticalAlign=middle;resizable=1;points=[];autosize=1;strokeColor=none;fillColor=none;fontFamily=Verdana;movable=1;rotatable=1;deletable=1;editable=1;locked=0;connectable=1;" vertex="1" parent="VI5VEpIVLjL-skiSAM5E-89">
          <mxGeometry x="71" y="31.5" width="120" height="30" as="geometry" />
        </mxCell>
        <mxCell id="VI5VEpIVLjL-skiSAM5E-37" value="Single Instance" style="text;html=1;align=left;verticalAlign=middle;resizable=1;points=[];autosize=1;strokeColor=none;fillColor=none;fontFamily=Verdana;fontSize=10;movable=1;rotatable=1;deletable=1;editable=1;locked=0;connectable=1;" vertex="1" parent="VI5VEpIVLjL-skiSAM5E-89">
          <mxGeometry x="70" y="74.5" width="100" height="30" as="geometry" />
        </mxCell>
        <mxCell id="VI5VEpIVLjL-skiSAM5E-38" value="&lt;font&gt;Computer Instance&lt;/font&gt;" style="text;html=1;align=left;verticalAlign=middle;resizable=1;points=[];autosize=1;strokeColor=none;fillColor=none;fontFamily=Verdana;movable=1;rotatable=1;deletable=1;editable=1;locked=0;connectable=1;" vertex="1" parent="VI5VEpIVLjL-skiSAM5E-89">
          <mxGeometry x="71" y="51.5" width="140" height="30" as="geometry" />
        </mxCell>
        <mxCell id="VI5VEpIVLjL-skiSAM5E-46" value="" style="endArrow=none;html=1;rounded=0;movable=1;resizable=1;rotatable=1;deletable=1;editable=1;locked=0;connectable=1;fillColor=#fff2cc;strokeColor=#000000;" edge="1" parent="VI5VEpIVLjL-skiSAM5E-89">
          <mxGeometry width="50" height="50" relative="1" as="geometry">
            <mxPoint x="71" y="81.5" as="sourcePoint" />
            <mxPoint x="180" y="81.5" as="targetPoint" />
          </mxGeometry>
        </mxCell>
        <mxCell id="VI5VEpIVLjL-skiSAM5E-41" value="API Gateway" style="text;html=1;align=left;verticalAlign=middle;resizable=1;points=[];autosize=1;strokeColor=none;fillColor=none;fontFamily=Verdana;movable=1;rotatable=1;deletable=1;editable=1;locked=0;connectable=1;" vertex="1" parent="VI5VEpIVLjL-skiSAM5E-89">
          <mxGeometry x="10" width="100" height="30" as="geometry" />
        </mxCell>
        <mxCell id="VI5VEpIVLjL-skiSAM5E-90" value="" style="group" vertex="1" connectable="0" parent="VI5VEpIVLjL-skiSAM5E-142">
          <mxGeometry x="697" y="107.5" width="210" height="125" as="geometry" />
        </mxCell>
        <mxCell id="VI5VEpIVLjL-skiSAM5E-69" value="" style="whiteSpace=wrap;html=1;movable=1;resizable=1;rotatable=1;deletable=1;editable=1;locked=0;connectable=1;strokeColor=#6c8ebf;fillColor=#dae8fc;" vertex="1" parent="VI5VEpIVLjL-skiSAM5E-90">
          <mxGeometry width="210" height="125" as="geometry" />
        </mxCell>
        <mxCell id="VI5VEpIVLjL-skiSAM5E-78" value="" style="verticalLabelPosition=bottom;verticalAlign=top;html=1;shape=mxgraph.basic.rect;fillColor2=none;strokeWidth=1;size=20;indent=5;strokeColor=#6c8ebf;shadow=1;fillColor=#dae8fc;movable=1;resizable=1;rotatable=1;deletable=1;editable=1;locked=0;connectable=1;" vertex="1" parent="VI5VEpIVLjL-skiSAM5E-90">
          <mxGeometry x="12" y="42.5" width="190" height="73" as="geometry" />
        </mxCell>
        <mxCell id="VI5VEpIVLjL-skiSAM5E-70" value="" style="verticalLabelPosition=bottom;verticalAlign=top;html=1;shape=mxgraph.basic.rect;fillColor2=none;strokeWidth=1;size=20;indent=5;strokeColor=#6c8ebf;shadow=1;fillColor=#dae8fc;movable=1;resizable=1;rotatable=1;deletable=1;editable=1;locked=0;connectable=1;" vertex="1" parent="VI5VEpIVLjL-skiSAM5E-90">
          <mxGeometry x="7" y="36.5" width="190" height="73" as="geometry" />
        </mxCell>
        <mxCell id="VI5VEpIVLjL-skiSAM5E-72" value="Docker Instances" style="text;html=1;align=left;verticalAlign=middle;resizable=1;points=[];autosize=1;strokeColor=none;fillColor=none;fontFamily=Verdana;movable=1;rotatable=1;deletable=1;editable=1;locked=0;connectable=1;" vertex="1" parent="VI5VEpIVLjL-skiSAM5E-90">
          <mxGeometry x="68" y="36.5" width="122" height="30" as="geometry" />
        </mxCell>
        <mxCell id="VI5VEpIVLjL-skiSAM5E-73" value="Multiple Instances" style="text;html=1;align=left;verticalAlign=middle;resizable=1;points=[];autosize=1;strokeColor=none;fillColor=none;fontFamily=Verdana;fontSize=10;movable=1;rotatable=1;deletable=1;editable=1;locked=0;connectable=1;" vertex="1" parent="VI5VEpIVLjL-skiSAM5E-90">
          <mxGeometry x="67" y="79.5" width="110" height="30" as="geometry" />
        </mxCell>
        <mxCell id="VI5VEpIVLjL-skiSAM5E-74" value="&lt;font&gt;Computer Instance&lt;/font&gt;" style="text;html=1;align=left;verticalAlign=middle;resizable=1;points=[];autosize=1;strokeColor=none;fillColor=none;fontFamily=Verdana;movable=1;rotatable=1;deletable=1;editable=1;locked=0;connectable=1;" vertex="1" parent="VI5VEpIVLjL-skiSAM5E-90">
          <mxGeometry x="68" y="56.5" width="122" height="30" as="geometry" />
        </mxCell>
        <mxCell id="VI5VEpIVLjL-skiSAM5E-75" value="" style="endArrow=none;html=1;rounded=0;movable=1;resizable=1;rotatable=1;deletable=1;editable=1;locked=0;connectable=1;fillColor=#dae8fc;strokeColor=#000000;" edge="1" parent="VI5VEpIVLjL-skiSAM5E-90">
          <mxGeometry width="50" height="50" relative="1" as="geometry">
            <mxPoint x="68" y="86.5" as="sourcePoint" />
            <mxPoint x="177" y="86.5" as="targetPoint" />
          </mxGeometry>
        </mxCell>
        <mxCell id="VI5VEpIVLjL-skiSAM5E-76" value="Cluster Microgateway &lt;br&gt;Consumer APIs" style="text;html=1;align=left;verticalAlign=middle;resizable=1;points=[];autosize=1;strokeColor=none;fillColor=none;fontFamily=Verdana;movable=1;rotatable=1;deletable=1;editable=1;locked=0;connectable=1;" vertex="1" parent="VI5VEpIVLjL-skiSAM5E-90">
          <mxGeometry x="10" width="150" height="40" as="geometry" />
        </mxCell>
        <mxCell id="VI5VEpIVLjL-skiSAM5E-82" value="" style="aspect=fixed;sketch=0;html=1;dashed=0;whitespace=wrap;fillColor=#dae8fc;strokeColor=#6c8ebf;points=[[0.005,0.63,0],[0.1,0.2,0],[0.9,0.2,0],[0.5,0,0],[0.995,0.63,0],[0.72,0.99,0],[0.5,1,0],[0.28,0.99,0]];shape=mxgraph.kubernetes.icon2;kubernetesLabel=1;prIcon=api" vertex="1" parent="VI5VEpIVLjL-skiSAM5E-90">
          <mxGeometry x="12" y="47.5" width="50" height="48" as="geometry" />
        </mxCell>
        <mxCell id="VI5VEpIVLjL-skiSAM5E-98" style="edgeStyle=orthogonalEdgeStyle;rounded=0;orthogonalLoop=1;jettySize=auto;html=1;exitX=0.5;exitY=1;exitDx=0;exitDy=0;entryX=0.5;entryY=1;entryDx=0;entryDy=0;" edge="1" parent="VI5VEpIVLjL-skiSAM5E-142" source="VI5VEpIVLjL-skiSAM5E-43" target="VI5VEpIVLjL-skiSAM5E-69">
          <mxGeometry relative="1" as="geometry">
            <Array as="points">
              <mxPoint x="551" y="260" />
              <mxPoint x="802" y="260" />
            </Array>
          </mxGeometry>
        </mxCell>
        <mxCell id="VI5VEpIVLjL-skiSAM5E-99" style="edgeStyle=orthogonalEdgeStyle;rounded=0;orthogonalLoop=1;jettySize=auto;html=1;entryX=0.606;entryY=-0.004;entryDx=0;entryDy=0;entryPerimeter=0;exitX=0.5;exitY=0;exitDx=0;exitDy=0;" edge="1" parent="VI5VEpIVLjL-skiSAM5E-142" source="VI5VEpIVLjL-skiSAM5E-59" target="VI5VEpIVLjL-skiSAM5E-43">
          <mxGeometry relative="1" as="geometry">
            <Array as="points">
              <mxPoint x="299" y="80" />
              <mxPoint x="573" y="80" />
            </Array>
          </mxGeometry>
        </mxCell>
        <mxCell id="VI5VEpIVLjL-skiSAM5E-100" value="" style="group" vertex="1" connectable="0" parent="VI5VEpIVLjL-skiSAM5E-142">
          <mxGeometry x="953" y="195" width="210" height="125" as="geometry" />
        </mxCell>
        <mxCell id="VI5VEpIVLjL-skiSAM5E-101" value="" style="whiteSpace=wrap;html=1;movable=1;resizable=1;rotatable=1;deletable=1;editable=1;locked=0;connectable=1;strokeColor=#6c8ebf;fillColor=#dae8fc;" vertex="1" parent="VI5VEpIVLjL-skiSAM5E-100">
          <mxGeometry width="210" height="125" as="geometry" />
        </mxCell>
        <mxCell id="VI5VEpIVLjL-skiSAM5E-102" value="" style="verticalLabelPosition=bottom;verticalAlign=top;html=1;shape=mxgraph.basic.rect;fillColor2=none;strokeWidth=1;size=20;indent=5;strokeColor=#6c8ebf;shadow=1;fillColor=#dae8fc;movable=1;resizable=1;rotatable=1;deletable=1;editable=1;locked=0;connectable=1;" vertex="1" parent="VI5VEpIVLjL-skiSAM5E-100">
          <mxGeometry x="12" y="42.5" width="190" height="73" as="geometry" />
        </mxCell>
        <mxCell id="VI5VEpIVLjL-skiSAM5E-103" value="" style="verticalLabelPosition=bottom;verticalAlign=top;html=1;shape=mxgraph.basic.rect;fillColor2=none;strokeWidth=1;size=20;indent=5;strokeColor=#6c8ebf;shadow=1;fillColor=#dae8fc;movable=1;resizable=1;rotatable=1;deletable=1;editable=1;locked=0;connectable=1;" vertex="1" parent="VI5VEpIVLjL-skiSAM5E-100">
          <mxGeometry x="7" y="36.5" width="190" height="73" as="geometry" />
        </mxCell>
        <mxCell id="VI5VEpIVLjL-skiSAM5E-104" value="Docker Instances" style="text;html=1;align=left;verticalAlign=middle;resizable=1;points=[];autosize=1;strokeColor=none;fillColor=none;fontFamily=Verdana;movable=1;rotatable=1;deletable=1;editable=1;locked=0;connectable=1;" vertex="1" parent="VI5VEpIVLjL-skiSAM5E-100">
          <mxGeometry x="68" y="36.5" width="122" height="30" as="geometry" />
        </mxCell>
        <mxCell id="VI5VEpIVLjL-skiSAM5E-105" value="Multiple Instances" style="text;html=1;align=left;verticalAlign=middle;resizable=1;points=[];autosize=1;strokeColor=none;fillColor=none;fontFamily=Verdana;fontSize=10;movable=1;rotatable=1;deletable=1;editable=1;locked=0;connectable=1;" vertex="1" parent="VI5VEpIVLjL-skiSAM5E-100">
          <mxGeometry x="67" y="79.5" width="110" height="30" as="geometry" />
        </mxCell>
        <mxCell id="VI5VEpIVLjL-skiSAM5E-106" value="&lt;font&gt;Computer Instance&lt;/font&gt;" style="text;html=1;align=left;verticalAlign=middle;resizable=1;points=[];autosize=1;strokeColor=none;fillColor=none;fontFamily=Verdana;movable=1;rotatable=1;deletable=1;editable=1;locked=0;connectable=1;" vertex="1" parent="VI5VEpIVLjL-skiSAM5E-100">
          <mxGeometry x="68" y="56.5" width="122" height="30" as="geometry" />
        </mxCell>
        <mxCell id="VI5VEpIVLjL-skiSAM5E-107" value="" style="endArrow=none;html=1;rounded=0;movable=1;resizable=1;rotatable=1;deletable=1;editable=1;locked=0;connectable=1;fillColor=#dae8fc;strokeColor=#000000;" edge="1" parent="VI5VEpIVLjL-skiSAM5E-100">
          <mxGeometry width="50" height="50" relative="1" as="geometry">
            <mxPoint x="68" y="86.5" as="sourcePoint" />
            <mxPoint x="177" y="86.5" as="targetPoint" />
          </mxGeometry>
        </mxCell>
        <mxCell id="VI5VEpIVLjL-skiSAM5E-108" value="Composer&lt;br&gt;Consumer APIs" style="text;html=1;align=left;verticalAlign=middle;resizable=1;points=[];autosize=1;strokeColor=none;fillColor=none;fontFamily=Verdana;movable=1;rotatable=1;deletable=1;editable=1;locked=0;connectable=1;" vertex="1" parent="VI5VEpIVLjL-skiSAM5E-100">
          <mxGeometry x="10" width="120" height="40" as="geometry" />
        </mxCell>
        <mxCell id="VI5VEpIVLjL-skiSAM5E-109" value="" style="aspect=fixed;sketch=0;html=1;dashed=0;whitespace=wrap;fillColor=#dae8fc;strokeColor=#6c8ebf;points=[[0.005,0.63,0],[0.1,0.2,0],[0.9,0.2,0],[0.5,0,0],[0.995,0.63,0],[0.72,0.99,0],[0.5,1,0],[0.28,0.99,0]];shape=mxgraph.kubernetes.icon2;kubernetesLabel=1;prIcon=api" vertex="1" parent="VI5VEpIVLjL-skiSAM5E-100">
          <mxGeometry x="12" y="47.5" width="50" height="48" as="geometry" />
        </mxCell>
        <mxCell id="VI5VEpIVLjL-skiSAM5E-120" value="" style="group" vertex="1" connectable="0" parent="VI5VEpIVLjL-skiSAM5E-142">
          <mxGeometry x="954" y="30" width="210" height="125" as="geometry" />
        </mxCell>
        <mxCell id="VI5VEpIVLjL-skiSAM5E-121" value="" style="whiteSpace=wrap;html=1;movable=1;resizable=1;rotatable=1;deletable=1;editable=1;locked=0;connectable=1;strokeColor=#6c8ebf;fillColor=#dae8fc;" vertex="1" parent="VI5VEpIVLjL-skiSAM5E-120">
          <mxGeometry width="210" height="125" as="geometry" />
        </mxCell>
        <mxCell id="VI5VEpIVLjL-skiSAM5E-122" value="" style="verticalLabelPosition=bottom;verticalAlign=top;html=1;shape=mxgraph.basic.rect;fillColor2=none;strokeWidth=1;size=20;indent=5;strokeColor=#6c8ebf;shadow=1;fillColor=#dae8fc;movable=1;resizable=1;rotatable=1;deletable=1;editable=1;locked=0;connectable=1;" vertex="1" parent="VI5VEpIVLjL-skiSAM5E-120">
          <mxGeometry x="12" y="42.5" width="190" height="73" as="geometry" />
        </mxCell>
        <mxCell id="VI5VEpIVLjL-skiSAM5E-123" value="" style="verticalLabelPosition=bottom;verticalAlign=top;html=1;shape=mxgraph.basic.rect;fillColor2=none;strokeWidth=1;size=20;indent=5;strokeColor=#6c8ebf;shadow=1;fillColor=#dae8fc;movable=1;resizable=1;rotatable=1;deletable=1;editable=1;locked=0;connectable=1;" vertex="1" parent="VI5VEpIVLjL-skiSAM5E-120">
          <mxGeometry x="7" y="36.5" width="190" height="73" as="geometry" />
        </mxCell>
        <mxCell id="VI5VEpIVLjL-skiSAM5E-124" value="Docker Instances" style="text;html=1;align=left;verticalAlign=middle;resizable=1;points=[];autosize=1;strokeColor=none;fillColor=none;fontFamily=Verdana;movable=1;rotatable=1;deletable=1;editable=1;locked=0;connectable=1;" vertex="1" parent="VI5VEpIVLjL-skiSAM5E-120">
          <mxGeometry x="68" y="36.5" width="122" height="30" as="geometry" />
        </mxCell>
        <mxCell id="VI5VEpIVLjL-skiSAM5E-125" value="Multiple Instances" style="text;html=1;align=left;verticalAlign=middle;resizable=1;points=[];autosize=1;strokeColor=none;fillColor=none;fontFamily=Verdana;fontSize=10;movable=1;rotatable=1;deletable=1;editable=1;locked=0;connectable=1;" vertex="1" parent="VI5VEpIVLjL-skiSAM5E-120">
          <mxGeometry x="67" y="79.5" width="110" height="30" as="geometry" />
        </mxCell>
        <mxCell id="VI5VEpIVLjL-skiSAM5E-126" value="&lt;font&gt;Computer Instance&lt;/font&gt;" style="text;html=1;align=left;verticalAlign=middle;resizable=1;points=[];autosize=1;strokeColor=none;fillColor=none;fontFamily=Verdana;movable=1;rotatable=1;deletable=1;editable=1;locked=0;connectable=1;" vertex="1" parent="VI5VEpIVLjL-skiSAM5E-120">
          <mxGeometry x="68" y="56.5" width="122" height="30" as="geometry" />
        </mxCell>
        <mxCell id="VI5VEpIVLjL-skiSAM5E-127" value="" style="endArrow=none;html=1;rounded=0;movable=1;resizable=1;rotatable=1;deletable=1;editable=1;locked=0;connectable=1;fillColor=#dae8fc;strokeColor=#000000;" edge="1" parent="VI5VEpIVLjL-skiSAM5E-120">
          <mxGeometry width="50" height="50" relative="1" as="geometry">
            <mxPoint x="68" y="86.5" as="sourcePoint" />
            <mxPoint x="177" y="86.5" as="targetPoint" />
          </mxGeometry>
        </mxCell>
        <mxCell id="VI5VEpIVLjL-skiSAM5E-128" value="MicroEIS&lt;br&gt;Consumer APIs" style="text;html=1;align=left;verticalAlign=middle;resizable=1;points=[];autosize=1;strokeColor=none;fillColor=none;fontFamily=Verdana;movable=1;rotatable=1;deletable=1;editable=1;locked=0;connectable=1;" vertex="1" parent="VI5VEpIVLjL-skiSAM5E-120">
          <mxGeometry x="10" width="120" height="40" as="geometry" />
        </mxCell>
        <mxCell id="VI5VEpIVLjL-skiSAM5E-129" value="" style="aspect=fixed;sketch=0;html=1;dashed=0;whitespace=wrap;fillColor=#dae8fc;strokeColor=#6c8ebf;points=[[0.005,0.63,0],[0.1,0.2,0],[0.9,0.2,0],[0.5,0,0],[0.995,0.63,0],[0.72,0.99,0],[0.5,1,0],[0.28,0.99,0]];shape=mxgraph.kubernetes.icon2;kubernetesLabel=1;prIcon=api" vertex="1" parent="VI5VEpIVLjL-skiSAM5E-120">
          <mxGeometry x="12" y="47.5" width="50" height="48" as="geometry" />
        </mxCell>
        <mxCell id="VI5VEpIVLjL-skiSAM5E-140" style="edgeStyle=orthogonalEdgeStyle;rounded=0;orthogonalLoop=1;jettySize=auto;html=1;entryX=-0.033;entryY=0.249;entryDx=0;entryDy=0;entryPerimeter=0;" edge="1" parent="VI5VEpIVLjL-skiSAM5E-142" source="VI5VEpIVLjL-skiSAM5E-69" target="VI5VEpIVLjL-skiSAM5E-123">
          <mxGeometry relative="1" as="geometry" />
        </mxCell>
        <mxCell id="VI5VEpIVLjL-skiSAM5E-141" style="edgeStyle=orthogonalEdgeStyle;rounded=0;orthogonalLoop=1;jettySize=auto;html=1;exitX=1;exitY=0.5;exitDx=0;exitDy=0;entryX=-0.028;entryY=0.326;entryDx=0;entryDy=0;entryPerimeter=0;" edge="1" parent="VI5VEpIVLjL-skiSAM5E-142" source="VI5VEpIVLjL-skiSAM5E-69" target="VI5VEpIVLjL-skiSAM5E-103">
          <mxGeometry relative="1" as="geometry" />
        </mxCell>
        <mxCell id="VI5VEpIVLjL-skiSAM5E-143" value="Digrama de Aquitectura" style="text;html=1;align=center;verticalAlign=middle;resizable=0;points=[];autosize=1;strokeColor=none;fillColor=none;fontSize=32;fontStyle=1;fontFamily=Verdana;" vertex="1" parent="1">
          <mxGeometry y="40" width="450" height="50" as="geometry" />
        </mxCell>
      </root>
    </mxGraphModel>
  </diagram>
</mxfile>
